M48
; DRILL file {KiCad (7.0.0)} date Sun Apr  9 22:54:27 2023
; FORMAT={-:-/ absolute / inch / decimal}
; #@! TF.CreationDate,2023-04-09T22:54:27+02:00
; #@! TF.GenerationSoftware,Kicad,Pcbnew,(7.0.0)
; #@! TF.FileFunction,MixedPlating,1,2
FMAT,2
INCH
; #@! TA.AperFunction,Plated,PTH,ComponentDrill
T1C0.0315
%
G90
G05
T1
X1.4Y-2.3598
X1.4Y-2.4598
X1.4Y-2.5598
X1.4Y-2.6598
X1.4Y-2.7598
X1.4Y-2.8598
X1.4Y-2.9598
X1.4Y-3.0598
X1.4Y-3.1598
X1.4Y-3.2598
X1.4Y-3.3598
X1.4Y-3.4598
X1.4Y-3.5598
X1.4Y-3.6598
X1.4008Y-3.7752
X1.4417Y-3.95
X1.4417Y-4.0654
X1.4417Y-4.3654
X1.4992Y-3.7752
X1.5402Y-3.95
X1.5417Y-4.0654
X1.5417Y-4.3654
X1.6417Y-4.0654
X1.6417Y-4.3654
X1.7417Y-4.0654
X1.7417Y-4.3654
X1.8417Y-4.0654
X1.8417Y-4.3654
X1.9417Y-4.0654
X1.9417Y-4.3654
X2.0Y-2.3598
X2.0Y-2.4598
X2.0Y-2.5598
X2.0Y-2.6598
X2.0Y-2.7598
X2.0Y-2.8598
X2.0Y-2.9598
X2.0Y-3.0598
X2.0Y-3.1598
X2.0Y-3.2598
X2.0Y-3.3598
X2.0Y-3.4598
X2.0Y-3.5598
X2.0Y-3.6598
X2.0417Y-4.0654
X2.0417Y-4.3654
X2.2449Y-2.0043
X2.2449Y-2.27
X2.2449Y-2.6043
X2.2449Y-2.87
X2.2449Y-3.06
X2.2449Y-3.3035
X2.2449Y-3.66
X2.2449Y-3.9035
X2.3449Y-2.0043
X2.3449Y-2.27
X2.3449Y-2.6043
X2.3449Y-2.87
X2.3449Y-3.06
X2.3449Y-3.3035
X2.3449Y-3.66
X2.3449Y-3.9035
X2.4449Y-2.0043
X2.4449Y-2.27
X2.4449Y-2.87
X2.4449Y-3.06
X2.4449Y-3.3035
X2.4449Y-3.66
X2.4449Y-3.9035
X2.4449Y-4.0654
X2.4449Y-4.3654
X2.5449Y-2.0043
X2.5449Y-2.27
X2.5449Y-2.6043
X2.5449Y-2.87
X2.5449Y-3.06
X2.5449Y-3.3035
X2.5449Y-3.66
X2.5449Y-3.9035
X2.5449Y-4.0654
X2.5449Y-4.3654
X2.6449Y-2.0043
X2.6449Y-2.27
X2.6449Y-2.87
X2.6449Y-3.06
X2.6449Y-3.3035
X2.6449Y-3.66
X2.6449Y-3.9035
X2.6449Y-4.0654
X2.6449Y-4.3654
X2.7449Y-2.0043
X2.7449Y-2.27
X2.7449Y-2.87
X2.7449Y-3.06
X2.7449Y-3.3035
X2.7449Y-3.66
X2.7449Y-3.9035
X2.7449Y-4.0654
X2.7449Y-4.3654
X2.8449Y-2.0043
X2.8449Y-2.27
X2.8449Y-2.87
X2.8449Y-3.06
X2.8449Y-3.3035
X2.8449Y-3.66
X2.8449Y-3.9035
X2.8449Y-4.0654
X2.8449Y-4.3654
X2.9449Y-2.0043
X2.9449Y-2.27
X2.9449Y-2.87
X2.9449Y-3.06
X2.9449Y-3.66
X2.9449Y-3.9035
X2.9449Y-4.0654
X2.9449Y-4.3654
X3.0449Y-2.0043
X3.0449Y-2.27
X3.0449Y-2.87
X3.0449Y-3.06
X3.0449Y-3.66
X3.0449Y-3.9035
X3.0449Y-4.0654
X3.0449Y-4.3654
X3.1449Y-2.0043
X3.1449Y-2.27
X3.1449Y-2.87
X3.1449Y-3.06
X3.1449Y-3.66
X3.1449Y-3.9035
X3.1449Y-4.0654
X3.1449Y-4.3654
X3.2449Y-2.0043
X3.2449Y-2.27
X3.2449Y-2.87
X3.2449Y-3.06
X3.2449Y-3.66
X3.2449Y-3.9035
X3.2476Y-4.3654
X3.3449Y-2.0043
X3.3449Y-2.27
X3.3449Y-2.87
X3.3449Y-3.06
X3.3449Y-3.66
X3.3449Y-3.9035
X3.3461Y-4.3654
X3.43Y-4.0697
X3.43Y-4.1681
X3.4449Y-2.0043
X3.4449Y-2.27
X3.4449Y-2.87
X3.4449Y-3.06
X3.4449Y-3.66
X3.4449Y-3.9035
X3.5449Y-2.0043
X3.5449Y-2.27
X3.5449Y-2.87
X3.5449Y-3.06
X3.5449Y-3.66
X3.5449Y-3.9035
X3.5449Y-4.0696
X3.5449Y-4.3696
X3.6449Y-2.0043
X3.6449Y-2.27
X3.6449Y-2.87
X3.6449Y-3.06
X3.6449Y-3.66
X3.6449Y-3.9035
X3.6449Y-4.0696
X3.6449Y-4.3696
X3.7449Y-2.0043
X3.7449Y-2.27
X3.7449Y-2.87
X3.7449Y-3.06
X3.7449Y-3.3035
X3.7449Y-3.66
X3.7449Y-3.9035
X3.7449Y-4.0696
X3.7449Y-4.3696
X3.8449Y-2.0043
X3.8449Y-2.27
X3.8449Y-2.6043
X3.8449Y-2.87
X3.8449Y-3.06
X3.8449Y-3.3035
X3.8449Y-3.66
X3.8449Y-3.9035
X3.8449Y-4.0696
X3.8449Y-4.3696
X3.9449Y-2.0043
X3.9449Y-2.27
X3.9449Y-2.87
X3.9449Y-3.06
X3.9449Y-3.3035
X3.9449Y-3.66
X3.9449Y-3.9035
X3.9449Y-4.0696
X3.9449Y-4.3696
X4.0449Y-2.0043
X4.0449Y-2.27
X4.0449Y-2.6043
X4.0449Y-2.87
X4.0449Y-3.06
X4.0449Y-3.3035
X4.0449Y-3.66
X4.0449Y-3.9035
X4.0449Y-4.0696
X4.0449Y-4.3696
X4.1449Y-2.0043
X4.1449Y-2.27
X4.1449Y-2.6043
X4.1449Y-2.87
X4.1449Y-3.06
X4.1449Y-3.3035
X4.1449Y-3.66
X4.1449Y-3.9035
X4.1449Y-4.0696
X4.1449Y-4.3696
T0
M30
