G04 #@! TF.GenerationSoftware,KiCad,Pcbnew,(7.0.0)*
G04 #@! TF.CreationDate,2023-04-04T22:58:09+02:00*
G04 #@! TF.ProjectId,kim-1-dual-6532-adapter,6b696d2d-312d-4647-9561-6c2d36353332,rev?*
G04 #@! TF.SameCoordinates,Original*
G04 #@! TF.FileFunction,Soldermask,Bot*
G04 #@! TF.FilePolarity,Negative*
%FSLAX46Y46*%
G04 Gerber Fmt 4.6, Leading zero omitted, Abs format (unit mm)*
G04 Created by KiCad (PCBNEW (7.0.0)) date 2023-04-04 22:58:09*
%MOMM*%
%LPD*%
G01*
G04 APERTURE LIST*
%ADD10C,1.701600*%
%ADD11O,1.701600X1.701600*%
G04 APERTURE END LIST*
D10*
G04 #@! TO.C,C2*
X36620000Y-100330000D03*
X39120000Y-100330000D03*
G04 #@! TD*
D11*
G04 #@! TO.C,U2*
X57019999Y-92963999D03*
X59559999Y-92963999D03*
X62099999Y-92963999D03*
X64639999Y-92963999D03*
X67179999Y-92963999D03*
X69719999Y-92963999D03*
X72259999Y-92963999D03*
X74799999Y-92963999D03*
X77339999Y-92963999D03*
X79879999Y-92963999D03*
X82419999Y-92963999D03*
X84959999Y-92963999D03*
X87499999Y-92963999D03*
X90039999Y-92963999D03*
X92579999Y-92963999D03*
X95119999Y-92963999D03*
X97659999Y-92963999D03*
X100199999Y-92963999D03*
X102739999Y-92963999D03*
X105279999Y-92963999D03*
X105279999Y-77723999D03*
X102739999Y-77723999D03*
X100199999Y-77723999D03*
X97659999Y-77723999D03*
X95119999Y-77723999D03*
X92579999Y-77723999D03*
X90039999Y-77723999D03*
X87499999Y-77723999D03*
X84959999Y-77723999D03*
X82419999Y-77723999D03*
X79879999Y-77723999D03*
X77339999Y-77723999D03*
X74799999Y-77723999D03*
X72259999Y-77723999D03*
X69719999Y-77723999D03*
X67179999Y-77723999D03*
X64639999Y-77723999D03*
X62099999Y-77723999D03*
X59559999Y-77723999D03*
X57019999Y-77723999D03*
G04 #@! TD*
D10*
G04 #@! TO.C,C3*
X87122000Y-103370000D03*
X87122000Y-105870000D03*
G04 #@! TD*
D11*
G04 #@! TO.C,U1*
X50799999Y-92959999D03*
X50799999Y-90419999D03*
X50799999Y-87879999D03*
X50799999Y-85339999D03*
X50799999Y-82799999D03*
X50799999Y-80259999D03*
X50799999Y-77719999D03*
X50799999Y-75179999D03*
X50799999Y-72639999D03*
X50799999Y-70099999D03*
X50799999Y-67559999D03*
X50799999Y-65019999D03*
X50799999Y-62479999D03*
X50799999Y-59939999D03*
X35559999Y-59939999D03*
X35559999Y-62479999D03*
X35559999Y-65019999D03*
X35559999Y-67559999D03*
X35559999Y-70099999D03*
X35559999Y-72639999D03*
X35559999Y-75179999D03*
X35559999Y-77719999D03*
X35559999Y-80259999D03*
X35559999Y-82799999D03*
X35559999Y-85339999D03*
X35559999Y-87879999D03*
X35559999Y-90419999D03*
X35559999Y-92959999D03*
G04 #@! TD*
G04 #@! TO.C,U3*
X57019999Y-72897999D03*
X59559999Y-72897999D03*
X62099999Y-72897999D03*
X64639999Y-72897999D03*
X67179999Y-72897999D03*
X69719999Y-72897999D03*
X72259999Y-72897999D03*
X74799999Y-72897999D03*
X77339999Y-72897999D03*
X79879999Y-72897999D03*
X82419999Y-72897999D03*
X84959999Y-72897999D03*
X87499999Y-72897999D03*
X90039999Y-72897999D03*
X92579999Y-72897999D03*
X95119999Y-72897999D03*
X97659999Y-72897999D03*
X100199999Y-72897999D03*
X102739999Y-72897999D03*
X105279999Y-72897999D03*
X105279999Y-57657999D03*
X102739999Y-57657999D03*
X100199999Y-57657999D03*
X97659999Y-57657999D03*
X95119999Y-57657999D03*
X92579999Y-57657999D03*
X90039999Y-57657999D03*
X87499999Y-57657999D03*
X84959999Y-57657999D03*
X82419999Y-57657999D03*
X79879999Y-57657999D03*
X77339999Y-57657999D03*
X74799999Y-57657999D03*
X72259999Y-57657999D03*
X69719999Y-57657999D03*
X67179999Y-57657999D03*
X64639999Y-57657999D03*
X62099999Y-57657999D03*
X59559999Y-57657999D03*
X57019999Y-57657999D03*
G04 #@! TD*
G04 #@! TO.C,U6*
X36619999Y-110879999D03*
X39159999Y-110879999D03*
X41699999Y-110879999D03*
X44239999Y-110879999D03*
X46779999Y-110879999D03*
X49319999Y-110879999D03*
X51859999Y-110879999D03*
X51859999Y-103259999D03*
X49319999Y-103259999D03*
X46779999Y-103259999D03*
X44239999Y-103259999D03*
X41699999Y-103259999D03*
X39159999Y-103259999D03*
X36619999Y-103259999D03*
G04 #@! TD*
G04 #@! TO.C,U4*
X79879999Y-103259999D03*
X77339999Y-103259999D03*
X74799999Y-103259999D03*
X72259999Y-103259999D03*
X69719999Y-103259999D03*
X67179999Y-103259999D03*
X64639999Y-103259999D03*
X62099999Y-103259999D03*
X62099999Y-110879999D03*
X64639999Y-110879999D03*
X67179999Y-110879999D03*
X69719999Y-110879999D03*
X72259999Y-110879999D03*
X74799999Y-110879999D03*
X77339999Y-110879999D03*
X79879999Y-110879999D03*
G04 #@! TD*
G04 #@! TO.C,U5*
X90039999Y-110987999D03*
X92579999Y-110987999D03*
X95119999Y-110987999D03*
X97659999Y-110987999D03*
X100199999Y-110987999D03*
X102739999Y-110987999D03*
X105279999Y-110987999D03*
X105279999Y-103367999D03*
X102739999Y-103367999D03*
X100199999Y-103367999D03*
X97659999Y-103367999D03*
X95119999Y-103367999D03*
X92579999Y-103367999D03*
X90039999Y-103367999D03*
G04 #@! TD*
D10*
G04 #@! TO.C,C1*
X82490000Y-110880000D03*
X84990000Y-110880000D03*
G04 #@! TD*
D11*
G04 #@! TO.C,J2_2*
X105279999Y-83909999D03*
X102739999Y-83909999D03*
X100199999Y-83909999D03*
X97659999Y-83909999D03*
X95119999Y-83909999D03*
X72259999Y-83909999D03*
X69719999Y-83909999D03*
X67179999Y-83909999D03*
X64639999Y-83909999D03*
X62099999Y-83909999D03*
X59559999Y-83909999D03*
X57019999Y-83909999D03*
G04 #@! TD*
G04 #@! TO.C,J3_2*
X105279999Y-50909999D03*
X102739999Y-50909999D03*
X100199999Y-50909999D03*
X97659999Y-50909999D03*
X95119999Y-50909999D03*
X92579999Y-50909999D03*
X90039999Y-50909999D03*
X87499999Y-50909999D03*
X84959999Y-50909999D03*
X82419999Y-50909999D03*
X79879999Y-50909999D03*
X77339999Y-50909999D03*
X74799999Y-50909999D03*
X72259999Y-50909999D03*
X69719999Y-50909999D03*
X67179999Y-50909999D03*
X64639999Y-50909999D03*
X62099999Y-50909999D03*
X59559999Y-50909999D03*
X57019999Y-50909999D03*
G04 #@! TD*
G04 #@! TO.C,J2_1*
X57019999Y-99149999D03*
X59559999Y-99149999D03*
X62099999Y-99149999D03*
X64639999Y-99149999D03*
X67179999Y-99149999D03*
X69719999Y-99149999D03*
X72259999Y-99149999D03*
X74799999Y-99149999D03*
X77339999Y-99149999D03*
X79879999Y-99149999D03*
X82419999Y-99149999D03*
X84959999Y-99149999D03*
X87499999Y-99149999D03*
X90039999Y-99149999D03*
X92579999Y-99149999D03*
X95119999Y-99149999D03*
X97659999Y-99149999D03*
X100199999Y-99149999D03*
X102739999Y-99149999D03*
X105279999Y-99149999D03*
G04 #@! TD*
G04 #@! TO.C,J3_1*
X57019999Y-66149999D03*
X59559999Y-66149999D03*
X64639999Y-66149999D03*
X97659999Y-66149999D03*
X102739999Y-66149999D03*
X105279999Y-66149999D03*
G04 #@! TD*
M02*
